<?xml version="1.0" encoding="UTF-8" standalone="no"?>
<svg xmlns:ffdec="https://www.free-decompiler.com/flash" xmlns:xlink="http://www.w3.org/1999/xlink" ffdec:objectType="shape" height="99.9px" width="489.375px" xmlns="http://www.w3.org/2000/svg">
  <g transform="matrix(1.5, 0.0, 0.0, 1.5, 353.85, 75.975)">
    <path d="M29.6 -28.25 L28.9 -25.15 0.3 -25.2 6.15 -48.6 14.15 -48.6 9.5 -29.15 10.25 -28.3 29.6 -28.25 M65.35 -39.1 L65.55 -38.55 85.25 -38.45 84.45 -35.35 64.55 -35.35 64.2 -34.8 Q63.25 -32.2 62.7 -29.15 L63.3 -28.3 82.8 -28.25 82.0 -25.15 53.55 -25.15 59.2 -48.6 87.7 -48.6 86.95 -45.55 66.9 -45.4 66.65 -45.1 Q65.45 -42.15 65.35 -39.1 M-214.25 -29.15 L-213.6 -28.3 -194.1 -28.25 -194.85 -25.15 -223.3 -25.2 -217.7 -48.6 -189.2 -48.6 -189.95 -45.55 -210.25 -45.35 -214.25 -29.15 M-169.65 -25.15 L-164.0 -48.6 -135.55 -48.6 -141.15 -25.15 -149.3 -25.2 -147.25 -34.75 -147.55 -35.25 -158.95 -35.2 -161.5 -25.15 -169.65 -25.15 M-144.55 -44.6 L-145.15 -45.4 -156.2 -45.45 -156.65 -44.85 -158.1 -39.35 -157.4 -38.5 -146.0 -38.9 -144.55 -44.6 M-92.45 -30.7 L-91.6 -34.65 -92.1 -35.25 -111.7 -35.35 -108.5 -48.6 -80.05 -48.6 -80.85 -45.55 -101.0 -45.35 -102.6 -39.35 -102.1 -38.55 -82.45 -38.45 -85.7 -25.15 -114.2 -25.2 -113.5 -28.25 -93.4 -28.6 -93.1 -29.1 -92.8 -29.45 -92.65 -30.0 -92.45 -30.7 M-43.4 -44.3 Q-43.1 -45.0 -43.7 -45.4 L-53.15 -45.55 -52.45 -48.6 -23.95 -48.6 -24.7 -45.55 -34.8 -45.35 -39.8 -25.15 -47.9 -25.2 Q-45.5 -34.85 -43.4 -44.3" fill="#ffffff" fill-rule="evenodd" stroke="none"/>
    <path d="M58.45 -50.65 L89.05 -50.65 89.9 -50.0 89.35 -47.15 90.25 -46.85 90.3 -46.25 90.3 -46.05 89.15 -40.55 87.25 -40.1 86.95 -37.0 87.75 -36.6 87.7 -35.75 87.55 -34.45 86.3 -30.2 84.8 -29.95 84.45 -26.8 85.25 -26.4 85.25 -25.75 84.7 -22.95 83.85 -20.05 83.85 -20.0 83.6 -19.75 52.75 -19.75 52.15 -19.9 52.1 -20.0 51.7 -20.65 52.25 -23.1 51.3 -24.15 57.5 -49.9 57.8 -50.4 58.45 -50.65 M16.45 -50.0 L15.8 -47.15 16.55 -47.05 16.8 -46.65 13.1 -30.3 31.45 -30.05 31.85 -29.35 31.4 -26.8 31.9 -26.7 32.35 -26.0 31.05 -20.1 30.15 -19.75 -0.4 -19.75 -0.95 -19.9 -1.0 -20.0 -1.4 -20.65 -1.2 -23.15 -1.9 -24.15 4.25 -49.9 4.65 -50.4 16.0 -50.4 16.45 -50.0 M29.6 -28.25 L10.25 -28.3 9.5 -29.15 14.15 -48.6 6.15 -48.6 0.3 -25.2 28.9 -25.15 29.6 -28.25 M12.9 -18.1 L47.15 -18.1 48.15 -17.45 47.55 -14.75 48.65 -14.05 43.45 4.05 42.95 4.4 37.7 4.4 41.35 5.25 40.8 8.1 41.8 8.5 42.0 8.9 39.9 15.55 21.6 15.65 21.2 15.2 21.8 12.4 20.65 11.75 22.65 4.4 20.6 4.4 17.35 15.4 16.75 15.85 4.45 15.65 4.15 15.2 4.7 12.4 3.5 11.75 3.5 11.1 12.05 -17.4 12.9 -18.1 M8.6 -14.3 Q9.1 -13.05 8.45 -11.7 L7.75 -10.0 6.7 -7.2 -16.0 -6.95 4.8 -5.95 4.25 -3.2 5.2 -2.9 3.3 4.15 -19.3 4.4 1.4 5.1 0.9 8.1 1.8 8.5 0.2 15.4 -0.65 15.95 -34.9 15.95 -35.85 15.2 -35.2 12.4 -36.25 11.75 -36.25 11.1 -27.85 -17.4 -26.85 -18.1 7.3 -18.1 8.25 -17.45 7.6 -14.75 8.6 -14.3 M5.9 -16.1 L-26.15 -16.1 -33.95 10.35 -1.9 10.35 -0.8 6.7 -22.95 6.45 -23.15 5.95 -21.4 -0.6 -21.0 -0.9 1.45 -1.05 2.5 -4.7 -19.25 -4.7 -19.9 -5.75 -17.85 -12.25 4.8 -12.4 5.9 -16.1 M25.45 -0.9 L25.9 -0.65 25.85 0.2 24.65 4.55 22.95 10.35 38.0 10.35 39.1 6.7 34.45 6.7 33.8 5.95 35.85 -0.85 41.4 -1.05 45.85 -16.1 13.75 -16.1 5.9 10.35 15.15 10.35 18.85 -0.75 22.05 -0.95 25.45 -0.9 M21.65 -10.75 L22.25 -12.1 34.05 -12.4 34.9 -12.05 34.75 -10.0 Q34.4 -7.35 33.05 -5.15 L32.85 -4.8 20.35 -5.0 Q19.65 -6.15 20.35 -7.8 L21.3 -10.0 21.65 -10.75 M65.35 -39.1 Q65.45 -42.15 66.65 -45.1 L66.9 -45.4 86.95 -45.55 87.7 -48.6 59.2 -48.6 53.55 -25.15 82.0 -25.15 82.8 -28.25 63.3 -28.3 62.7 -29.15 Q63.25 -32.2 64.2 -34.8 L64.55 -35.35 84.45 -35.35 85.25 -38.45 65.55 -38.55 65.35 -39.1 M52.85 -18.1 L87.15 -18.1 88.0 -17.7 87.45 -14.75 88.6 -14.05 86.5 -7.2 63.9 -6.95 84.5 -6.25 84.05 -3.2 85.2 -2.7 80.05 15.4 79.1 15.95 44.95 15.95 44.0 15.2 44.6 12.4 43.45 11.75 45.7 5.05 68.2 4.7 47.75 4.35 47.4 3.8 47.75 1.0 46.9 0.3 52.55 -18.0 52.85 -18.1 M50.6 -1.05 L70.65 -1.05 Q71.35 -1.05 71.65 -0.3 L71.55 -0.05 70.7 3.55 70.15 5.05 69.6 6.05 69.3 6.45 47.0 6.7 45.85 10.35 77.95 10.35 82.3 -4.7 Q71.7 -4.65 60.95 -4.75 59.95 -4.75 59.9 -5.75 L61.8 -12.0 84.7 -12.4 85.75 -16.1 53.65 -16.1 49.25 -1.05 50.6 -1.05 M-186.85 -50.0 L-187.45 -47.15 -186.45 -46.55 -187.95 -40.4 -208.25 -40.1 -210.65 -30.3 -192.35 -30.05 -191.9 -29.55 -192.45 -26.8 -191.45 -26.15 -192.7 -20.1 -193.6 -19.75 -224.2 -19.75 -224.7 -19.9 -224.75 -20.0 -225.15 -20.65 -225.0 -23.15 -225.7 -24.15 -219.4 -49.9 -219.15 -50.4 -218.4 -50.65 -187.9 -50.65 -186.85 -50.0 M-164.8 -50.65 L-134.25 -50.65 -133.25 -50.0 -133.8 -47.15 -133.1 -47.05 -132.75 -45.95 -139.0 -20.1 -139.55 -19.75 -150.65 -19.9 -151.0 -20.65 -150.55 -23.1 -151.05 -23.3 -151.65 -24.15 -150.35 -29.95 -157.0 -29.95 -159.4 -20.1 -159.9 -19.75 -171.0 -19.9 -171.5 -20.65 -171.1 -23.1 -171.95 -24.15 -165.8 -49.9 -165.45 -50.4 -164.8 -50.65 M-214.25 -29.15 L-210.25 -45.35 -189.95 -45.55 -189.2 -48.6 -217.7 -48.6 -223.3 -25.2 -194.85 -25.15 -194.1 -28.25 -213.6 -28.3 -214.25 -29.15 M-226.5 -18.1 L-192.2 -18.1 -191.25 -17.45 -191.9 -14.75 -190.9 -14.3 -190.7 -13.35 -192.85 -7.2 -215.5 -6.95 -218.95 4.7 -198.1 5.1 -198.65 8.1 -197.7 8.5 -197.45 8.9 -199.3 15.4 -200.2 15.95 -234.45 15.95 -235.35 15.2 -234.75 12.4 -235.2 12.35 -235.9 11.75 -235.9 11.1 -227.4 -17.4 -226.5 -18.1 M-217.1 -12.3 L-194.75 -12.4 -193.65 -16.1 -225.7 -16.1 -233.55 10.35 -201.4 10.35 -200.3 6.7 -221.85 6.7 Q-222.45 6.7 -222.8 5.95 L-217.65 -12.0 -217.1 -12.3 M-169.65 -25.15 L-161.5 -25.15 -158.95 -35.2 -147.55 -35.25 -147.25 -34.75 -149.3 -25.2 -141.15 -25.15 -135.55 -48.6 -164.0 -48.6 -169.65 -25.15 M-186.5 -18.1 L-152.4 -18.1 -151.35 -17.45 -151.95 -14.75 -150.85 -14.05 -156.05 4.05 -156.65 4.4 -161.9 4.4 -158.25 5.15 -158.7 8.1 -157.75 8.5 -157.55 8.9 -159.7 15.55 -177.9 15.65 -178.35 15.2 -177.75 12.4 -178.9 11.75 -176.9 4.4 -178.95 4.4 -182.2 15.4 -182.75 15.85 -195.05 15.65 -195.55 15.2 -194.85 12.4 -195.95 11.75 -195.95 11.1 -187.5 -17.4 -186.5 -18.1 M-180.6 -0.9 L-174.1 -1.0 -173.6 -0.3 -176.55 10.35 -161.5 10.35 -160.5 6.7 -164.75 6.7 Q-165.6 6.7 -165.8 5.75 L-164.85 2.75 -163.55 -0.7 -163.1 -1.05 -158.1 -1.05 -153.7 -16.1 -185.8 -16.1 -193.65 10.35 -184.3 10.35 -180.6 -0.9 M-179.15 -5.0 L-179.45 -5.65 -177.65 -12.05 -171.35 -12.35 -165.45 -12.4 -164.6 -12.05 Q-164.65 -10.95 -164.85 -10.0 -165.4 -7.35 -166.55 -5.0 L-166.7 -4.8 -179.15 -5.0 M-109.35 -50.65 L-78.8 -50.65 -77.85 -50.0 -78.2 -47.15 -77.3 -46.55 -78.7 -40.55 Q-79.35 -39.85 -80.45 -40.1 L-80.35 -39.45 -80.8 -37.0 -80.1 -36.85 Q-79.7 -36.4 -79.75 -35.75 L-83.45 -20.1 -84.4 -19.75 -115.05 -19.75 -115.55 -19.9 -115.6 -20.0 -116.0 -20.65 -115.45 -23.1 -116.0 -23.3 -116.55 -24.15 -115.25 -29.45 Q-115.15 -30.05 -114.6 -30.2 L-113.35 -30.3 -113.55 -30.9 -113.15 -33.3 -113.35 -33.3 -114.0 -34.3 -109.95 -50.4 -109.35 -50.65 M-144.55 -44.6 L-146.0 -38.9 -157.4 -38.5 -158.1 -39.35 -156.65 -44.85 -156.2 -45.45 -145.15 -45.4 -144.55 -44.6 M-146.55 -18.1 L-112.4 -18.1 -111.45 -17.45 -112.1 -14.75 -111.05 -14.3 -110.95 -13.35 -119.5 15.4 -120.05 15.85 -132.45 15.65 -132.75 15.2 -132.15 12.4 -132.55 12.35 -133.15 11.75 -131.3 4.4 -139.0 4.4 -142.3 15.4 -142.8 15.85 -155.15 15.65 -155.5 15.2 -154.9 12.4 -155.35 12.35 -156.05 11.75 -156.05 11.1 -147.55 -17.4 -146.55 -18.1 M-134.25 -12.3 Q-129.3 -12.7 -124.6 -12.05 L-126.3 -5.15 -126.85 -4.7 -139.15 -4.8 -139.55 -5.25 -137.2 -12.3 -134.25 -12.3 M-128.6 -0.9 L-128.05 -0.65 -127.85 0.05 -130.85 10.35 -121.55 10.35 -113.75 -16.1 -145.75 -16.1 -153.7 10.35 -144.4 10.35 -140.55 -0.95 -128.85 -1.0 -128.6 -0.9 M-92.45 -30.7 L-92.65 -30.0 -92.8 -29.45 -93.1 -29.1 -93.4 -28.6 -113.5 -28.25 -114.2 -25.2 -85.7 -25.15 -82.45 -38.45 -102.1 -38.55 -102.6 -39.35 -101.0 -45.35 -80.85 -45.55 -80.05 -48.6 -108.5 -48.6 -111.7 -35.35 -92.1 -35.25 -91.6 -34.65 -92.45 -30.7 M-106.6 -18.1 L-72.45 -18.1 -71.5 -17.45 -72.15 -14.75 -71.1 -14.3 -72.9 -7.35 -95.8 -6.95 -75.0 -5.95 -75.5 -3.2 -74.4 -2.7 -79.5 15.4 -80.45 15.95 -114.65 15.95 -115.6 15.2 -115.05 12.4 -116.05 11.75 -113.9 5.05 -91.4 4.7 -111.8 4.35 -112.2 3.75 -111.65 1.0 -112.7 0.3 -107.2 -17.75 -106.6 -18.1 M-110.35 -1.05 L-88.35 -0.9 -88.2 -0.6 Q-87.95 -0.15 -88.15 0.25 L-88.95 3.75 -89.75 6.3 -90.2 6.5 Q-101.4 6.8 -112.65 6.7 L-113.75 10.35 -81.7 10.35 -77.2 -4.7 -98.95 -4.7 -99.65 -5.25 -98.85 -8.8 -98.35 -10.0 -97.65 -11.9 -97.25 -12.3 -74.9 -12.4 -73.85 -16.1 -105.85 -16.1 -110.35 -1.05 M-21.6 -50.0 L-22.25 -47.15 -21.3 -46.55 -22.55 -40.55 -32.8 -40.1 -37.65 -20.1 -38.15 -19.75 -49.25 -19.9 -49.3 -20.0 -49.7 -20.65 -49.2 -23.1 -49.7 -23.3 -50.2 -24.15 -46.4 -40.1 -54.65 -40.2 -55.05 -41.0 -54.65 -43.6 -55.55 -44.5 -54.15 -49.9 -53.2 -50.65 -22.65 -50.65 -21.6 -50.0 M-43.4 -44.3 Q-45.5 -34.85 -47.9 -25.2 L-39.8 -25.15 -34.8 -45.35 -24.7 -45.55 -23.95 -48.6 -52.45 -48.6 -53.15 -45.55 -43.7 -45.4 Q-43.1 -45.0 -43.4 -44.3 M-67.4 -17.85 L-55.1 -18.05 -54.65 -17.7 -54.4 -16.45 -54.5 -16.15 -55.1 -14.75 -54.05 -14.3 -56.0 -6.7 -48.2 -6.7 -44.4 -17.85 -32.6 -18.1 -31.75 -17.7 -32.35 -14.75 -31.3 -14.3 -31.1 -13.35 -39.75 15.4 -40.25 15.85 -52.3 15.75 -52.95 15.2 -52.65 12.45 -53.5 11.75 -51.6 4.4 -59.2 4.4 -62.6 15.4 -63.1 15.85 -75.05 15.75 -75.85 15.2 -75.45 12.45 -76.15 11.75 -76.15 11.1 -67.8 -17.4 -67.4 -17.85 M-59.8 -5.25 L-56.8 -16.1 -66.1 -16.1 -73.9 10.35 -64.65 10.35 -60.9 -0.9 -48.75 -0.95 -48.25 -0.65 -48.25 -0.05 -49.15 3.55 -49.95 6.5 -51.1 10.35 -41.85 10.35 -33.95 -16.1 -43.3 -16.1 -46.55 -5.05 -46.6 -5.0 -47.1 -4.7 -59.05 -4.7 -59.8 -5.25" fill="#000000" fill-rule="evenodd" stroke="none"/>
    <path d="M5.9 -16.1 L4.8 -12.4 -17.85 -12.25 -19.9 -5.75 -19.25 -4.7 2.5 -4.7 1.45 -1.05 -21.0 -0.9 -21.4 -0.6 -23.15 5.95 -22.95 6.45 -0.8 6.7 -1.9 10.35 -33.95 10.35 -26.15 -16.1 5.9 -16.1 M-59.8 -5.25 L-59.05 -4.7 -47.1 -4.7 -46.6 -5.0 -46.55 -5.05 -43.3 -16.1 -33.95 -16.1 -41.85 10.35 -51.1 10.35 -49.95 6.5 -49.15 3.55 -48.25 -0.05 -48.25 -0.65 -48.75 -0.95 -60.9 -0.9 -64.65 10.35 -73.9 10.35 -66.1 -16.1 -56.8 -16.1 -59.8 -5.25" fill="#6699ff" fill-rule="evenodd" stroke="none"/>
    <path d="M21.65 -10.75 L21.3 -10.0 20.35 -7.8 Q19.65 -6.15 20.35 -5.0 L32.85 -4.8 33.05 -5.15 Q34.4 -7.35 34.75 -10.0 L34.9 -12.05 34.05 -12.4 22.25 -12.1 21.65 -10.75 M25.45 -0.9 L22.05 -0.95 18.85 -0.75 15.15 10.35 5.9 10.35 13.75 -16.1 45.85 -16.1 41.4 -1.05 35.85 -0.85 33.8 5.95 34.45 6.7 39.1 6.7 38.0 10.35 22.95 10.35 24.65 4.55 25.85 0.2 25.9 -0.65 25.45 -0.9 M50.6 -1.05 L49.25 -1.05 53.65 -16.1 85.75 -16.1 84.7 -12.4 61.8 -12.0 59.9 -5.75 Q59.95 -4.75 60.95 -4.75 71.7 -4.65 82.3 -4.7 L77.95 10.35 45.85 10.35 47.0 6.7 69.3 6.45 69.6 6.05 70.15 5.05 70.7 3.55 71.55 -0.05 71.65 -0.3 Q71.35 -1.05 70.65 -1.05 L50.6 -1.05" fill="#ff9900" fill-rule="evenodd" stroke="none"/>
    <path d="M-217.1 -12.3 L-217.65 -12.0 -222.8 5.95 Q-222.45 6.7 -221.85 6.7 L-200.3 6.7 -201.4 10.35 -233.55 10.35 -225.7 -16.1 -193.65 -16.1 -194.75 -12.4 -217.1 -12.3 M-179.15 -5.0 L-166.7 -4.8 -166.55 -5.0 Q-165.4 -7.35 -164.85 -10.0 -164.65 -10.95 -164.6 -12.05 L-165.45 -12.4 -171.35 -12.35 -177.65 -12.05 -179.45 -5.65 -179.15 -5.0 M-180.6 -0.9 L-184.3 10.35 -193.65 10.35 -185.8 -16.1 -153.7 -16.1 -158.1 -1.05 -163.1 -1.05 -163.55 -0.7 -164.85 2.75 -165.8 5.75 Q-165.6 6.7 -164.75 6.7 L-160.5 6.7 -161.5 10.35 -176.55 10.35 -173.6 -0.3 -174.1 -1.0 -180.6 -0.9" fill="#66cc66" fill-rule="evenodd" stroke="none"/>
    <path d="M-128.6 -0.9 L-128.85 -1.0 -140.55 -0.95 -144.4 10.35 -153.7 10.35 -145.75 -16.1 -113.75 -16.1 -121.55 10.35 -130.85 10.35 -127.85 0.05 -128.05 -0.65 -128.6 -0.9 M-134.25 -12.3 L-137.2 -12.3 -139.55 -5.25 -139.15 -4.8 -126.85 -4.7 -126.3 -5.15 -124.6 -12.05 Q-129.3 -12.7 -134.25 -12.3 M-110.35 -1.05 L-105.85 -16.1 -73.85 -16.1 -74.9 -12.4 -97.25 -12.3 -97.65 -11.9 -98.35 -10.0 -98.85 -8.8 -99.65 -5.25 -98.95 -4.7 -77.2 -4.7 -81.7 10.35 -113.75 10.35 -112.65 6.7 Q-101.4 6.8 -90.2 6.5 L-89.75 6.3 -88.95 3.75 -88.15 0.25 Q-87.95 -0.15 -88.2 -0.6 L-88.35 -0.9 -110.35 -1.05" fill="#ff0000" fill-rule="evenodd" stroke="none"/>
  </g>
</svg>
