<svg height="467.12701" viewBox="0 0 1000 467.12702" width="1000" xmlns="http://www.w3.org/2000/svg"><g transform="translate(0 -585.23516)"><path d="m974.34777 737.42334c-8.76793-6.07212-21.30477-9.34373-25.54478-9.78867-5.07755-4.52792-29.57541-24.52404-65.03973-23.66033h-.3926l-.26173.2879c-8.97731 9.42225-17.24796 26.69639-23.94823 49.5977-9.1867-10.02423-22.87514-15.33733-39.73051-15.33733-3.40248 0-6.98817.23555-10.65238.65432-14.7877 1.75358-23.79119 5.9936-30.3606 9.08201-4.13532 1.96296-7.40694 3.50717-10.49534 3.63803h-.47111c-2.80051 0-5.26076-1.15161-8.63707-2.72198-5.62718-2.64347-13.3482-6.25533-27.90035-6.80496-17.40499-.70667-32.27122 3.481-44.49398 10.70472 4.4494-16.69833 10.91412-34.46974 19.13242-47.18979l.44494-.70667-.65433-.52346c-3.35013-2.69581-8.89879-5.88891-13.76696-7.93039 1.51803-3.37631 3.95211-8.37534 8.13978-14.78771l.52346-.78519-.81136-.52346c-15.36351-9.78867-43.34237-16.88154-66.50542-16.88154-6.75261 0-12.58917.62815-17.32647 1.85828l-.34025.0785-.20939.31408c-4.00445 5.9936-7.22373 14.29042-8.89879 19.02772-4.7373.39259-12.19659 2.01531-16.7245 4.08297l-.23556.1047-.15704.20938c-5.28693 7.77336-8.71558 22.40403-10.46917 36.6421-10.67856-2.69581-22.24699-4.24001-33.47518-4.24001-6.80496 0-13.06029.5758-18.60895 1.72741l-.52346.10469-.18321.49729c-1.23013 3.53334-2.35556 8.53237-2.98371 11.41139-21.40946.18321-48.96956 8.00892-68.73012 28.63319.0785-27.37689 2.56495-56.32415 9.10818-85.42844l.18321-.86371-.83753-.26173c-9.00349-2.64347-21.04304-4.03063-34.75765-4.03063-34.88852 0-74.0694 8.5062-87.3129 18.97537l-.23555.18321-.0785.28791c-4.29236 14.52597-3.69039 35.41197 1.70124 57.26637 2.12 8.66324 4.81582 16.59363 7.85188 23.3986-5.67953-1.46569-11.67313-2.48643-17.92846-3.03606l-.31408-.0262c-3.16692-.23555-6.43854-.34024-9.68398-.34024l-1.41334-.0262c-35.90926 0-78.91138 16.09635-100.08528 37.40112l-.3926.5758.34025.60198c7.45929 13.89783 13.89783 28.26677 19.44649 42.84509-6.01978-4.60644-12.32745-8.84645-18.71365-12.87708-19.55118-13.21733-20.88599-20.83366-20.62427-26.93195 2.17236-28.60701 44.46781-48.55078 81.05757-48.55078 10.96646 0 20.70279 1.8321 28.1359 5.3131l.94222.44494.34025-.99457c18.63511-53.9947-7.43313-144.02957-41.22238-174.41635l-.23556-.23555-.34025-.0262c-3.55952-.20938-7.27607-.31407-10.99263-.31407-69.43678 0-152.71904 37.68902-202.52613 91.63143-35.045553 37.97694-51.4559801 82.05215-47.4515218 127.51453l.026173.31408c4.1353228 39.88754 23.3462538 70.66691 57.0569868 91.44821 27.586269 17.03858 58.732052 22.87515 72.054072 25.38775 24.18379 4.55409 22.79663 12.53683 22.1423 16.35808-1.93679 9.13435-14.91857 10.15509-20.41488 10.18127-4.1615-.0262-18.73982-.99457-31.59073-11.83017l-.62815-.49728-.60198.52346c-19.551175 17.27413-30.962572 60.17158-26.56552 83.12518l.05235.2879.209383.2094c14.787706 14.3428 44.781877 24.0006 76.398777 24.5764h.54963c31.56456 0 61.37552-9.6055 83.93659-27.089 12.53683-9.7101 22.4302-21.5665 29.57541-35.22874 1.28247 13.66224 2.09384 26.56554 2.53878 38.42184l.0262.759.75901.1309c5.36545.8899 11.07115 1.3086 16.98623 1.3086 18.24254 0 37.34878-4.3708 48.68165-11.1234l.31408-.1833.10469-.3664c3.74273-13.4267 5.07755-45.98581 4.81582-65.22292 28.16207-13.89782 44.44164-31.82628 53.89006-48.26288 4.34471 11.83016 7.95657 19.47266 10.31214 23.86971l.23555.44494.49729.0262c1.41334.1047 2.90519.18321 4.42322.18321 19.89143 0 48.57696-10.07657 59.04613-20.72896l.36643-.36642-.13087-.49728c-1.23013-5.31311-2.69581-11.62078-4.26619-18.68748 13.32203 7.53781 28.21442 11.48992 43.60411 11.48992 8.45385 0 17.16944-1.23013 25.9112-3.63804 3.53334.62815 9.10818 1.33482 15.86079 1.33482 10.70473 0 26.25145-1.85827 39.62582-10.7309l.49728-.34025-.10469-.62815-.10469-.65432c5.07755.83753 10.52152 1.2563 16.27956 1.2563 19.60353 0 37.24408-4.63261 45.38386-8.95114l.54963-.2879-.0523-.60198c-.31408-3.84742-.15704-11.1235.36642-20.25785.49729.65432.99457 1.30865 1.51803 1.9368 9.23904 10.99263 22.74428 17.06475 38.02927 17.06475.78518 0 1.59655-.0262 2.43408-.0785 19.26328-.78519 28.89491-5.57483 36.66827-9.42226 5.02521-2.5126 8.97732-4.47557 14.08104-4.68495h.23556l.88988-.0262c4.97285-.10469 8.1136 1.46568 12.14424 3.481 6.51706 3.29779 14.76153 7.51163 34.18184 6.67409 17.64056-.70666 34.96704-9.29139 48.52461-22.4302.0262 1.30865.0523 2.59112.1047 3.82125l.0262.23556.10469.18321c7.79953 14.34276 31.80011 15.44203 38.97149 15.44203 5.7057 0 11.20202-.60198 14.3166-1.51803 5.65335 8.24447 19.76056 18.39957 28.52849 20.38871l.23556.0523.23555-.0785c25.57096-7.72102 57.5281-42.4525 67.08122-72.81309 11.14964-32.95172 3.66421-61.55874-20.59809-78.54497" fill="#a4ce4c"/><path d="m965.44897 729.36208c-8.71559-6.04595-21.48798-9.34374-25.38774-9.63164-8.74176-7.87805-32.8732-24.39317-64.62097-23.63415-9.91954 10.41682-18.03314 29.2875-24.18378 50.82783-10.80942-12.77239-28.50232-18.26871-50.6708-15.62524-14.65684 1.72741-23.55563 5.94125-30.07269 9.00348-4.24002 1.98915-7.59015 3.55952-10.88794 3.71656h-.47111c-3.00989 0-5.52249-1.20395-9.02966-2.82668-5.57484-2.59112-13.19116-6.15063-27.53393-6.72644-18.16401-.73284-33.52752 3.89977-45.93349 11.75165 4.55409-17.74525 11.35905-36.56359 19.81291-49.67622-3.45483-2.77434-9.4746-6.17682-14.42129-8.13979 1.62273-3.71655 4.10915-8.95114 8.6109-15.80845-20.5981-13.11263-62.18688-20.36254-83.07288-14.91857-4.10915 6.17682-7.38077 14.76154-9.00349 19.39415-4.31853.2879-12.22276 1.8321-17.0124 4.0568-5.44397 7.98274-8.79411 22.95366-10.443 37.27025-17.66673-4.58026-37.58433-5.86273-52.68611-2.77433-1.28247 3.66421-2.43408 8.92497-3.11458 12.01338-21.38328 0-50.43524 8.1136-70.37901 30.07269-.10469-28.21442 2.35557-58.05156 9.08201-87.99339-34.54827-10.10275-103.14752.49729-121.23301 14.78771-6.75262 22.90131-.28791 59.09847 10.3383 81.84275-6.20298-1.72741-12.77239-2.93137-19.68204-3.53335h-.31407c-3.14076-.20938-6.3862-.34024-9.63164-.34024-35.0979-.44494-79.35633 15.49437-100.79196 37.11321 8.03509 14.97092 14.8924 30.46529 20.72896 46.14288-6.77878-5.39163-14.00251-10.31214-21.35711-14.94475-19.86525-13.40054-21.33093-21.35711-21.01686-27.76948 2.98371-39.25939 76.37261-59.90983 110.52828-44.02286 18.29488-53.00019-6.36002-142.3284-40.96063-173.42184-67.52616-4.18767-157.77042 31.43369-212.785922 91.00328-35.071727 37.92458-51.2204244 81.92127-47.26831196 126.80785l.0261729.2879c4.10915006 39.57347 23.16304306 70.11728 56.61204806 90.74155 27.455403 16.96005 58.470323 22.77045 71.713823 25.25687 24.68108 4.65879 23.63416 13.19116 22.90132 17.48352-1.83211 8.66324-12.82474 10.88794-21.35711 10.91411-8.11361-.0785-21.09538-2.72198-32.166533-12.01337-19.498833 17.24796-30.569983 59.70045-26.277622 82.23539 14.813878 14.3689 44.808055 23.7388 75.744455 24.3146 45.41004.157 93.12329-20.3102 114.71596-64.69948 1.43951 14.70919 2.32939 28.73788 2.82667 41.71968 23.3986 3.8474 50.74931-1.1516 65.03973-9.7102 3.82125-13.60991 5.05138-46.56163 4.78965-65.56317 21.22625-10.39066 42.3478-27.08899 55.04167-49.80709 4.26619 11.88251 8.06126 20.15316 10.94029 25.54478 20.57192 1.70124 52.18882-9.52695 62.73651-20.25785-1.43951-6.15064-3.03606-13.08646-4.65878-20.72896 13.60992 8.13978 29.02578 12.40597 44.93892 12.40597 10.02423 0 18.81834-1.70124 25.85885-3.66421 11.07115 1.96297 35.59519 3.69038 55.0155-9.23904-.13086-.62815-.23555-1.33482-.34025-1.98915 23.32009 4.13533 50.98487-1.33482 62.3701-7.38076-.34025-4.26619-.13087-12.58918.52346-23.00601.94222 1.38717 1.93679 2.72199 3.00988 4.03063 9.05584 10.78325 22.29934 16.72451 37.29643 16.72451.78519 0 1.59655 0 2.38173-.0523 19.08007-.78519 28.63319-5.52249 36.30186-9.34374 5.10372-2.53877 9.13435-4.55409 14.57832-4.76347l.23556.0262h.15703l.18321-.0262c5.47015-.23556 8.79411 1.41334 13.03412 3.55952 5.91509 2.95754 13.24351 6.64792 29.1043 6.64792 1.46569 0 3.00989-.0262 4.60644-.10469 18.08549-.73284 35.85691-9.84102 49.46684-23.71267.0262 2.09383.0523 4.10915.13086 5.9936 9.42225 17.35265 44.78188 16.17487 52.84315 13.26967 5.07754 7.90423 19.26327 18.50426 28.37145 20.5981 25.72799-7.79953 57.26637-42.97595 66.45307-72.23729 10.80942-31.98332 4.00446-60.43329-20.28402-77.47187" fill="#231f20"/><path d="m321.80428 781.39386c-37.79371-2.64346-76.03237 13.60993-86.10894 22.92749 32.11418 64.38541 44.99126 145.52149 47.45152 197.94585 9.39608.6543 22.92748-1.7797 31.27665-5.52247 2.06766-8.68941 3.03606-33.76308 1.75359-64.41158 23.92205-9.00349 62.29157-32.71616 66.87183-75.14248 4.58026-44.07521-19.68204-72.18494-61.24465-75.79681m-7.14521 125.63007c-1.96297-25.36157-5.44397-52.31969-10.96646-75.92767 14.65684-2.04149 33.08258 2.38174 38.8668 22.35168 7.22373 27.40306-11.83016 45.72411-27.90034 53.57599m-112.77916-60.66885c-20.10081-13.53141-30.3606-26.51318-29.44455-44.41547 3.55952-55.35574 88.01957-72.08024 115.03003-64.75182 6.22916-31.98332-8.55855-104.19444-35.20259-133.16787-95.45267-1.49186-243.4605939 80.58645-233.14846 197.65797 8.113609 77.99533 81.79041 93.75143 113.27644 99.64034 37.53198 7.09286 39.88755 26.77491 37.74137 39.1547-6.12447 31.6169-51.08956 29.47072-67.47382 19.70822-6.255327 7.74719-14.395108 36.95618-13.086462 47.94885 39.913722 29.968 160.309192 23.9482 166.014892-77.89068.99457-41.58879-21.01686-63.39084-53.70685-83.88424m233.38402-163.63316c-23.42477-3.97829-73.54594 3.84742-87.6008 12.14424-4.0568 16.98623 4.52792 58.05156 12.6677 68.88715 4.89434-2.74816 10.33831-5.4178 16.09635-7.87805 3.03606 45.33151 22.61341 122.594 34.57444 147.72001 10.33831-.54963 28.00504-6.07212 34.91469-10.78324-17.45734-74.30495-22.58724-145.96643-10.65238-210.09011m239.22058 19.76056c-3.35014-1.91062-8.13978-3.66421-13.81931-5.18224 3.08841-7.85188 5.86274-13.87165 7.98274-17.74525-9.082-4.47557-38.31717-9.00348-50.5661-7.27607-3.00988 6.04595-5.65335 12.69387-8.03509 19.70822-6.51706.34024-12.563 1.17778-17.56203 2.59112-4.68496 8.89879-7.95657 38.94532-6.28151 52.13647 3.61187-1.15161 7.72102-2.01531 12.11807-2.69581-6.5694 46.35226-5.26076 94.90304-1.57037 117.54263 10.80942.99457 24.89045-.26173 34.46974-3.63804.41877-44.52015 7.0667-84.0151 14.94475-114.87299 6.17681.54963 11.22818 1.30865 14.2119 2.09384 2.25087-11.04498 8.82028-33.63222 14.10721-42.66188m-143.40149 27.71713c-1.2563 4.81582-2.27704 9.78868-3.0884 14.8924-21.38329-4.94668-57.58045 1.88445-77.07928 30.67467-21.82822 33.2658-8.24447 72.1326 11.62078 86.50154 28.00504 19.83908 58.65354 13.68844 74.67137 5.78422.5758 1.8321 1.15161 3.481 1.72741 4.92051 8.32299 1.15161 22.97984-.23556 29.02578-3.42866-4.68495-43.34237 1.30865-102.36233 12.90326-131.17872-8.40151-4.78965-33.47518-10.07658-49.78092-8.16596m-23.37242 122.12289c-19.47266-4.18766-29.65393-25.78033-18.34723-44.15373 8.82028-13.55758 24.57639-16.88154 36.19717-14.97091.81136 21.40945 3.74272 41.87668 7.17138 57.63279-6.41237 2.35556-15.10178 3.66421-25.02132 1.49185m448.65636-109.87396c-12.14424-7.95657-27.48157-8.71558-37.42729-6.77878 1.77976-3.14076 3.53335-6.01978 5.23459-8.55855-8.27065-7.01435-27.63861-14.2119-41.0915-14.78771-20.57192 27.06281-30.96258 112.77916-29.60158 126.7555 2.43408 3.14075 20.17932 6.88348 27.48157 5.23459 3.63804-20.5981 12.9556-51.40364 23.52947-77.65509 23.37242-4.0568 31.77393 15.99167 26.8796 34.70531-5.15607 20.33637-20.75514 38.70976-29.28751 44.91275 1.75358 4.3447 10.94028 13.58375 16.85536 14.99709 14.99709-6.77879 43.00213-33.34432 51.66537-59.56959 8.55855-25.57095 2.38173-47.71325-14.23808-59.25552m-149.7615-2.46025c-20.38871.83753-40.01841 13.40054-51.27277 30.91023-5.23459-16.82919-20.75514-28.00504-41.11767-27.1675-28.26677 1.15161-55.19871 24.96897-60.11922 53.18339-4.92052 28.21442 14.00251 50.14734 42.29545 49.0219 20.36254-.83753 40.01841-13.42671 51.2466-30.9364 5.26076 16.82919 20.75513 27.97886 41.14384 27.1675 28.26677-1.15161 55.19871-24.96898 60.11922-53.1834 4.89434-28.18824-14.02869-50.12116-42.29545-48.99572" fill="#fff"/><g fill="#dbdcdd"><path d="m741.74894 755.03772c2.40791 3.1931 4.31853 6.85731 5.57483 10.94029l1.67507 5.4178 2.30322-3.55952c-2.2247-5.07755-5.47015-9.42226-9.55312-12.79857m1.2563 48.02733-3.06223 4.76347c-11.09733 17.27414-30.38678 28.92109-49.12659 29.70628-.6805.0262-1.33482.0523-2.01532.0523-9.89337 0-18.71364-3.03606-25.44009-8.66324.36642.49728.75902.99457 1.15161 1.46568 7.01435 8.34916 17.58821 12.9556 29.75862 12.9556.65433 0 1.33482 0 2.01532-.0524 18.73982-.75901 38.02927-12.43214 49.12659-29.70627l.78519-1.23013c-.54964-1.2563-1.04692-2.53877-1.49186-3.87359l-1.70124-5.4178zm95.45267-47.50387c-1.30864-1.57037-2.74815-2.98371-4.29236-4.26619 6.36003 8.45386 8.71559 19.55118 6.62175 31.51221-4.71112 27.01047-30.56998 49.85943-57.60661 50.98487-.6805.0262-1.33482.0524-1.98915.0524-9.99806 0-18.79216-3.11458-25.46626-8.66324 6.85731 9.10818 17.87611 14.42128 30.91023 14.42128.65433 0 1.33482 0 1.98915-.0523 27.03663-1.09926 52.89549-23.9744 57.60661-50.98486 2.2247-12.6677-.52345-24.39317-7.77336-33.00407"/><path d="m306.54546 901.44909.31407 3.89977 3.50718-1.70124 1.30864-.6805c-2.2247-26.61787-5.86273-51.19425-10.57386-71.26888l-.65432-2.82668 2.87902-.39259c2.27704-.31408 4.58026-.49729 6.85731-.49729 9.65781 0 17.82376 2.72198 24.02674 7.77336-6.38619-8.71559-16.61981-13.50523-29.47071-13.50523-2.27705 0-4.58027.15704-6.85731.49728l-2.87902.3926.65432 2.82667c4.92051 21.09539 8.71558 47.21597 10.88794 75.48273m61.06144-95.74057c-1.59655-1.91063-3.35013-3.71656-5.20841-5.4178 10.33831 12.69387 14.68301 30.28208 12.53683 50.854-4.00445 37.19174-36.30185 62.05602-65.17059 72.91779l-1.77976.65432.0785 1.9368c1.28247 31.35517.20938 53.75919-1.43951 62.37009-5.86274 2.40791-14.00252 4.16149-21.30477 4.71113.13087 2.17235.26173 4.16149.34025 5.91508h.73284c8.29682 0 18.60895-1.96297 25.67565-4.86817 1.64889-8.61089 2.72198-31.04109 1.43951-62.39626l-.0785-1.91063 1.80593-.65432c28.86874-10.88794 61.16614-35.75222 65.1706-72.91778 2.17235-20.75514-2.27705-38.44804-12.79857-51.19425"/><path d="m488.02855 842.58617c-1.38716-1.88445-2.59112-3.92593-3.50717-6.12446-4.08298-9.55312-3.14075-20.38871 2.64347-29.75862 6.88348-10.60004 18.60895-16.67216 32.1927-16.67216 1.17778 0 2.38174.0523 3.55952.15704-.0523-.94223-.10469-1.91062-.13086-2.85285l-.0785-2.17235-2.14618-.36642c-2.14618-.34025-4.39706-.54964-6.64793-.54964-13.58375 0-25.30922 6.07212-32.1927 16.67216-5.78422 9.39608-6.72644 20.2055-2.64347 29.75862 1.96297 4.71113 5.07755 8.74176 8.95114 11.90868m89.51142-102.91196c-1.80593-.81136-4.08297-1.62272-6.64792-2.38173-10.33831 30.54381-15.25882 84.25066-11.20201 124.89722-4.39706 1.67507-12.14424 2.82668-19.49884 2.82668l-1.15161-.0262.73285 2.27705c.39259 1.17778.75901 2.27704 1.12543 3.29779 1.43951.13086 3.03606.20938 4.76348.20938 7.35459 0 15.10178-1.15161 19.49883-2.82668-4.21384-42.16459 1.23013-98.46256 12.37979-128.27353m-43.23768 121.80882-.94222-2.90519-2.77433 1.36099c-9.31756 4.58026-20.96452 7.22373-31.93098 7.22373-14.57832 0-28.0312-4.31854-40.01841-12.79857-.96839-.68049-1.91062-1.43951-2.82667-2.27704 2.59112 3.21927 5.36545 5.94125 8.29682 8.03509 11.9872 8.48003 25.46626 12.79856 40.04458 12.79856 10.96646 0 22.61341-2.64347 31.93097-7.22373l1.51803-.73284c-.75901-.0523-1.49185-.0785-2.14618-.13086-.41876-1.04692-.78518-2.14618-1.15161-3.35014"/><path d="m925.14266 768.09802c-.34025-.49729-.65432-.9684-1.02075-1.43952-4.50174-5.81039-11.14966-8.89879-19.26327-8.89879-2.01532 0-4.13533.18321-6.30768.5758l-1.46568.23556-.54963 1.38716c-10.36448 25.728-19.42032 55.4081-23.34626 76.32027-.65432.0523-1.36099.0785-2.17235.0785-5.07755 0-10.80942-1.04692-15.02326-2.2247-.0262 1.43951-.0262 2.69581.0262 3.71655 2.56495 1.57038 12.3798 4.26619 20.46723 4.26619.78519 0 1.51803-.0262 2.17235-.0785 3.92594-20.91217 12.98178-50.59227 23.34626-76.32026l.54963-1.38717 1.43951-.23555c2.17235-.36642 4.29236-.57581 6.30768-.57581 5.78421 0 10.78324 1.57038 14.84005 4.58027m-7.11904-36.14482c.86371-1.49186 1.72741-2.93137 2.56495-4.21384-1.88445-1.36099-4.13532-2.66964-6.59558-3.92594-.91605 1.51803-1.88445 3.0884-2.82668 4.84199l-2.82667 4.99903 5.65335-1.09926c1.28247-.26173 2.61729-.44494 4.03063-.60198m39.70434 14.8924c9.18669 11.96103 11.20201 29.47072 4.89433 48.31523-8.2183 24.83811-34.31271 50.25202-49.36214 57.58044-2.06766-.75901-4.60644-2.56495-6.98817-4.65878 2.93136 3.82125 8.53237 8.97732 12.45831 10.39065 15.04944-7.32842 41.14385-32.74233 49.36215-57.58044 7.38076-22.08996 3.3763-42.42632-10.36448-54.0471"/><path d="m373.36495 746.19127-3.45483 1.46569c-4.18767 1.80593-8.13978 3.69038-11.88251 5.62718 1.04692 2.72198 2.09384 5.10372 3.16693 6.962 3.95211-2.14618 8.24447-4.21384 12.72004-6.17681-.13087-1.41334-.23556-2.80051-.31408-4.13533zm58.7844-61.21848c-1.91063-.23556-4.03063-.39259-6.30768-.49729-9.63164 59.01996-5.75804 126.70316 11.59461 201.34836-6.25533 3.61186-18.32105 7.45928-27.37688 8.87262.8637 2.2247 1.72741 4.29236 2.53877 6.12446 9.21287-.91605 23.32008-5.23458 30.28208-9.23904-17.84994-76.8699-21.4618-146.35902-10.7309-206.60911"/><path d="m658.59754 695.3111c2.19853-5.52249 4.39705-10.52152 6.36002-14.39511-1.96297-.73285-4.4494-1.41334-7.22373-2.06767-1.62272 3.42866-3.29779 7.43312-4.99903 11.75165l-1.09926 2.77433 2.87902.78519c1.43951.34025 2.77433.73284 4.08298 1.15161m-70.1958 41.06532c-.0262 2.48643 0 4.842.13087 6.93583 2.01531-.52346 4.18766-.9684 6.49088-1.38716.13087-1.07309.2879-2.17236.44494-3.24545l.49729-3.53334-3.53335.54963c-1.38716.20938-2.72198.41877-4.03063.68049m75.53508-35.35962c-4.31854 9.89336-8.79411 25.09984-11.09733 35.20259-3.0884-.60198-7.22372-1.15161-11.96102-1.54421l-2.25088-.20938-.54963 2.19853c-9.31756 36.51123-14.4998 75.74446-14.99709 113.59051-6.62175 2.04149-15.49437 3.27162-24.15761 3.27162l-.62815-.0262c.23555 1.98914.47111 3.87359.70667 5.601 1.72741.1047 3.50717.15704 5.36545.15704 8.68941 0 17.53586-1.20395 24.18379-3.24544.49728-37.84606 5.67952-77.10545 14.99708-113.61669l.54964-2.17235 2.25087.20938c4.7373.41877 8.87262.94222 11.96103 1.5442 2.56494-11.25436 7.8257-28.86874 12.563-38.36951-1.96297-.88988-4.29236-1.75359-6.93582-2.59112"/></g><path d="m30.473392 826.25427c-1.805932-.81136-4.135323-1.49186-6.726443-2.04149 5.234586 16.56746 13.923999 29.52306 24.366998 39.70433 1.308646-4.58026 1.884451-9.71015.811361-14.60449-2.120008-9.60547-11.018804-19.68205-18.451916-23.05835m28.266764-40.48953c-8.061262-2.04148-17.352652 8.00892-15.808449 18.19019 2.172353 10.60004 14.107209 11.25436 20.231675 8.87262 11.25436-4.84199 5.103721-24.57638-4.423226-27.06281m102.283814 70.50988c7.09286-.13087 10.78324-3.95212 10.94028-9.8672.0785-4.21384-.54963-13.68844-7.11904-21.51415-6.96199-7.87805-15.59906-2.87902-19.39414 1.09927-3.71655 3.71655-8.08743 10.18127-6.49088 16.69833 2.61729 10.18127 14.55215 13.66227 22.06378 13.58375m-52.13648 39.80902c8.97732 2.43409 17.09092 4.08298 23.47712 5.26076 11.56843 2.19853 19.76056 5.57484 25.54478 9.55312 1.51803-3.32396 2.56495-7.51163 2.74816-12.74621.47111-12.40597-6.01978-20.75514-15.91315-24.60256-10.70472-3.35013-24.41934 1.72741-30.80553 7.95657-3.92594 3.7689-5.28694 8.71559-5.05138 14.57832m-2.48643-32.00949c4.34471-5.26076 8.00892-15.31116 4.97286-24.20996s-13.505233-16.17487-21.25242-16.56746c-7.014346-.34025-14.264247 2.61729-19.420314 9.05583-4.920511 6.09829-5.62718 15.57289-4.684955 23.66033 1.046917 8.19213 6.51706 14.42128 14.447457 15.88697 12.14424 2.12 21.618842-2.56495 25.937372-7.82571m15.59907 101.96974c-7.72102-.94223-14.70919-3.08841-19.36797-5.86274-3.428654 4.24001-7.380766 14.8924-10.076578 25.49243 1.989143.65433 4.266188.94223 6.857308.88988 6.72644-.18321 13.60992-2.74815 17.74525-7.22373 3.87359-4.21384 5.20841-8.7941 4.84199-13.29584m104.40382-101.89122c-8.48003-2.66964-16.30574-.18321-21.48798 3.71656-6.12447 4.50174-13.50523 13.03411-17.9808 27.50774-4.86817 14.94475 2.25087 27.08899 13.08646 33.60605 11.22819 6.5694 28.63319 7.8257 38.34335 7.17138 7.64249-.62815 12.45831-3.29779 16.69832-8.71559l.54964-.75901c-.23556-28.03121-11.33288-46.82337-29.20899-62.52713m-15.88697 103.77567c-8.8988.94222-17.56204 8.29682-19.89143 17.90228-2.46025 10.18127.62815 20.15318 6.17681 23.76498 1.91063 1.361 3.58569 2.2247 5.10372 2.8005 13.66227-6.4123 25.98972-15.67754 35.41198-28.31907-.6805-3.50717-2.35557-6.67409-4.4494-8.95114-3.89977-4.37088-12.74622-8.00891-22.35168-7.19755m-62.00367 17.03857c-12.90326-1.98914-27.848 8.00892-33.71074 18.05929-3.21927 5.9413-3.7689 11.0974-2.95754 15.8085 19.18476 5.8627 43.78731 6.9882 67.18591 1.4657.44494-4.3186.31408-8.6633-.81136-12.0396-3.89976-10.78323-16.35808-21.09536-29.70627-23.29389m47.13744-31.25047c-2.06766-7.30225-12.24893-12.19659-18.42574-8.68942-5.47014 3.1931-6.36002 11.20202-4.97286 15.72993 1.361 4.58027 5.73188 8.45386 11.54227 7.45929 6.80496-1.23013 13.89782-7.19756 11.85633-14.4998" fill="#bbbdbf"/><path d="m247.47315 924.40275c-3.7689 67.21209-58.99378 91.08185-105.13666 91.08185-19.26327 0-37.40111-4.083-50.199675-11.1497-.02617.8375-.02617 1.6227 0 2.3555 12.798565 9.1082 33.475175 14.526 55.669825 14.526 46.14287 0 101.36776-23.84352 105.13666-91.08177.62815-26.56553-8.16596-44.72954-23.92206-60.04071 12.30128 14.15956 19.00155 30.98875 18.45191 54.30883m-85.08819-13.55757c-5.60101-7.69485-16.20104-14.34277-34.96704-17.87611-27.08898-5.07755-59.936005-14.23808-82.994356-36.61593 23.110697 26.61787 59.176996 36.87765 88.464506 42.37397 13.87165 2.64347 23.26773 6.962 29.49689 12.11807m88.70006-304.1818h-.88988c22.56107 31.30283 33.86777 92.626 29.65393 121.57326-3.66421-.70667-8.06126-1.07309-12.90326-1.07309-39.62581 0-99.64034 21.88057-102.62405 68.83481-.65433 13.16498 4.21384 24.23613 15.83462 35.20259-7.66867-9.13435-10.91411-18.58278-10.36448-29.44455 3.00989-46.98041 63.02441-68.8348 102.65023-68.8348 4.84199 0 9.23904.36642 12.90325 1.04692 4.47558-30.83172-8.66324-98.43639-34.26036-127.30514" fill="#dbdcdd"/><path d="m717.06786 751.50438c-16.67215.54963-32.40208 12.82473-35.07172 27.42923-2.69581 14.63067 8.66324 26.06824 25.33539 25.51861 16.69833-.52346 32.37592-12.82474 35.0979-27.42923 2.64347-14.63067-8.68941-26.04207-25.36157-25.51861m84.19832-3.40248c-16.7245.68049-32.37591 13.16498-34.94086 27.848-2.56495 14.68301 8.92497 26.06823 25.64947 25.38774 16.75068-.6805 32.37591-13.16499 34.94086-27.848 2.56495-14.73536-8.89879-26.06824-25.64947-25.38774" fill="#231f20"/></g></svg>